# xmcd CD database file
#
# Track frame offsets:
#	150
#	17150
#	32574
#	48799
#	63316
#	75677
#	92608
#	107499
#	126247
#	144633
#	159409
#	176266
#	196458
#	210184
#	226909
#	242615
#	259865
#	277648
#	293531
#	308688
#
# Disc length: 4370 seconds
#
# Revision: 0
# Processed by: cddbd v1.5.2PL0 Copyright (c) Steve Scherf et al.
# Submitted via: CDex 1.51
#
DISCID=f8111014
DTITLE=The Real Book Play-Along - Volume I A-D CD3
DYEAR=1900
DGENRE=Jazz
TTITLE0=Con Alma
TTITLE1=Conception
TTITLE2=Confirmation
TTITLE3=Cotton Tail
TTITLE4=Countdown
TTITLE5=D Natural Blues
TTITLE6=Dancing on the Ceiling
TTITLE7=Darn That Dream
TTITLE8=Dear Old Stockholm
TTITLE9=Dearly Beloved
TTITLE10=Desafinado
TTITLE11=Detour Ahead
TTITLE12=Dexterity
TTITLE13=Dizzy Atmosphere
TTITLE14=Django
TTITLE15=Dolphin Dance
TTITLE16=Don't Blame Me
TTITLE17=Don't Get Around Much Anymore
TTITLE18=Donna Lee
TTITLE19=Dreamsville
EXTD=
EXTT0=
EXTT1=
EXTT2=
EXTT3=
EXTT4=
EXTT5=
EXTT6=
EXTT7=
EXTT8=
EXTT9=
EXTT10=
EXTT11=
EXTT12=
EXTT13=
EXTT14=
EXTT15=
EXTT16=
EXTT17=
EXTT18=
EXTT19=
PLAYORDER=
